# xmcd
#
# Track frame offsets:
#	150
#	11870
#	27409
#	36564
#	48510
#	57930
#	68809
#	81825
#	95743
#	108552
#	119489
#	129770
#
# Disc length: 1872 seconds
#
# Revision: 3
# Processed by: cddbd v1.5.2PL0 Copyright (c) Steve Scherf et al.
# Submitted via: EasyCDDAExtractor 12.0.1.1
#
DISCID=aa074e0c
DTITLE=Charles Jacobie - Sing, Swerwer, Sing
DYEAR=2002
DGENRE=Country
TTITLE0=Daar Doer In Die Bosveld
TTITLE1=Drome
TTITLE2=Ek Sal Wag Vir Jou
TTITLE3=Bolands Nooientjie
TTITLE4=Van'n Seun Tot'n Man
TTITLE5=Ossewa
TTITLE6=Kom Huistoe My Seun
TTITLE7=Ruiter In Die Nag
TTITLE8=Heimwee
TTITLE9=My Liefste Engel
TTITLE10=In Die Skadu Van Ou Tafelberg
TTITLE11=Aan Die Einde Van Die Dag
EXTD=YEAR: 2002
EXTT0=
EXTT1=
EXTT2=
EXTT3=
EXTT4=
EXTT5=
EXTT6=
EXTT7=
EXTT8=
EXTT9=
EXTT10=
EXTT11=
PLAYORDER=
